Coordinates
version=1
nRows=15
nColumns=43
inDegrees=yes

Units are S.I. units (second, meters, Newtons, ...)
Angles are in degrees.

endheader
time	pelvis_tilt	pelvis_list	pelvis_rotation	pelvis_tx	pelvis_ty	pelvis_tz	hip_flexion_r	hip_adduction_r	hip_rotation_r	knee_angle_r	ankle_angle_r	subtalar_angle_r	mtp_angle_r	hip_flexion_l	hip_adduction_l	hip_rotation_l	knee_angle_l	ankle_angle_l	subtalar_angle_l	mtp_angle_l	lumbar_extension	lumbar_bending	lumbar_rotation	neck_flexion	neck_lateral_bending	neck_rotation	arm_flex_r	arm_add_r	arm_rot_r	elbow_flex_r	pro_sup_r	wrist_flex_r	wrist_dev_r	hand_finger_flex_r	arm_flex_l	arm_add_l	arm_rot_l	elbow_flex_l	pro_sup_l	wrist_flex_l	wrist_dev_l	hand_finger_flex_l
      0.99500000	     14.90333101	      3.35298334	     -8.64207130	      0.76757179	      0.92281147	      0.35928739	     -2.41220053	    -10.69218428	     -1.67273989	    -66.79331188	     -3.32565142	    -14.50806659	      0.00000000	     -9.55705018	      8.07048831	     -4.97799607	    -11.44484100	     15.01685473	     -6.35286335	      0.00000000	    -19.44657940	     -7.69093613	      0.23872816	     -5.56387907	     -1.55706992	      2.64903597	     -8.64976254	    -13.31662519	     -3.69519982	     56.04144431	    -77.10506269	     -5.69018866	    -18.07136163	      8.65107325	    -11.43309516	    -13.60538752	      0.16436345	     43.08355503	    -33.90770674	    -23.92637566	     -8.28039748	     -6.76569632
      1.00000000	     15.15306225	      2.98550108	     -8.13650085	      0.77382740	      0.92394174	      0.35835096	     -2.19259048	    -10.23523441	     -2.32294825	    -66.57669343	     -2.39215779	    -14.00754490	      0.00000000	    -10.60779298	      7.68738058	     -5.00802719	    -10.95715621	     15.40731931	     -5.49817679	      0.00000000	    -19.84615603	     -7.17246496	     -0.41545654	     -5.63088617	     -1.49202523	      3.02647405	     -8.79504025	    -13.36467699	     -3.19277448	     55.48247989	    -76.89063455	     -5.88328760	    -18.42573375	      8.19692497	    -10.70603956	    -13.84111414	      0.70036843	     42.93146932	    -32.78551733	    -22.44090324	     -7.96953243	     -6.03030823
      1.00500000	     15.11104744	      2.87830934	     -7.93952023	      0.78004397	      0.92435488	      0.35771199	     -1.38323255	     -9.97666877	     -2.47083130	    -66.53934151	     -1.62176257	    -14.11251166	      0.00000000	    -11.39695381	      7.64327011	     -4.83603276	    -10.22795775	     15.41377121	     -5.37393626	      0.00000000	    -19.86985093	     -6.94446236	     -0.70820059	     -5.59591207	     -1.54793146	      3.05556677	     -9.07736023	    -13.28255062	     -3.06599128	     55.01339608	    -76.86996168	     -5.91257068	    -18.52510466	      8.11894457	    -10.03123412	    -14.05064417	      0.58755481	     43.22720033	    -32.66026156	    -22.23555499	     -7.87951595	     -5.90981650
      1.01000000	     15.11666171	      2.77578902	     -7.63716944	      0.78632038	      0.92483124	      0.35692912	     -0.69436823	     -9.70320650	     -2.67852140	    -66.41800280	     -0.70472496	    -14.15622635	      0.00000000	    -12.15863339	      7.57466329	     -4.60750273	     -9.65196524	     15.55137806	     -5.24820189	      0.00000000	    -19.93680908	     -6.70058170	     -1.10854557	     -5.61991404	     -1.62378402	      3.13398025	     -9.40408380	    -13.24607134	     -2.81230449	     54.53924518	    -76.74926499	     -5.99280877	    -18.58548891	      8.00328952	     -9.33736577	    -14.24473785	      0.41514126	     43.60776518	    -32.65495908	    -22.06685009	     -7.81500516	     -5.78403965
      1.01500000	     15.12414557	      2.68972049	     -7.28805775	      0.79255489	      0.92525225	      0.35605165	     -0.06158667	     -9.45464754	     -2.95983741	    -66.25660367	     -0.18990937	    -14.08658813	      0.00000000	    -12.88657179	      7.49587525	     -4.30223459	     -9.14899823	     15.75413915	     -5.06733139	      0.00000000	    -20.01758618	     -6.46382271	     -1.58018462	     -5.62958561	     -1.65341212	      3.27523078	     -9.72495398	    -13.23585565	     -2.43462454	     54.07395596	    -76.47232548	     -6.03906159	    -18.61358365	      7.89543404	     -8.62670095	    -14.41783406	      0.19748104	     43.91426953	    -32.72243988	    -21.96291432	     -7.82258885	     -5.66765416
      1.02000000	     15.32714660	      2.51195315	     -6.62298257	      0.79868518	      0.92604146	      0.35470344	      0.14471263	     -9.16058475	     -3.69526607	    -65.85723788	      0.49898789	    -13.82088582	      0.00000000	    -13.68131948	      7.25259536	     -3.75746392	     -8.97034930	     16.08443475	     -4.64997869	      0.00000000	    -20.35329069	     -6.03755686	     -2.53234056	     -5.78589917	     -1.69708080	      3.70863719	     -9.78073864	    -13.30321719	     -1.68256500	     53.54510487	    -75.73500142	     -6.08636892	    -18.72100119	      7.64526624	     -8.07106629	    -14.63653520	     -0.09044951	     44.40727940	    -32.90718182	    -21.87078847	     -7.88354428	     -5.37716486
      1.02500000	     15.42037174	      2.39598328	     -6.24509736	      0.80492338	      0.92653717	      0.35378019	      0.61908588	     -8.87300032	     -4.04586055	    -65.52107857	      0.98162680	    -13.84081703	      0.00000000	    -14.44222850	      7.12011789	     -3.57170559	     -8.57426847	     16.23840089	     -4.34316982	      0.00000000	    -20.53100303	     -5.76684386	     -3.06304971	     -5.75746579	     -1.74441857	      3.85478937	    -10.01711870	    -13.23711863	     -1.54299290	     53.24113623	    -75.59878252	     -6.24251593	    -18.97066485	      7.38525530	     -7.44793271	    -14.80866912	     -0.40089429	     44.92658769	    -33.08412183	    -21.72183080	     -7.88005263	     -5.11164996
      1.03000000	     15.63245129	      2.06862805	     -5.80202228	      0.81096470	      0.92734002	      0.35272182	      0.82917568	     -8.40408905	     -4.54374813	    -64.85518941	      2.06011060	    -13.12065576	      0.00000000	    -15.27402999	      6.75108334	     -3.65604584	     -8.29865876	     16.59821185	     -3.84292852	      0.00000000	    -20.89767192	     -5.23824490	     -3.56288748	     -5.68555486	     -1.82464457	      3.99767786	    -10.21381231	    -13.28313082	     -1.34049607	     52.94565305	    -75.67647246	     -6.56437349	    -19.27668916	      6.91806008	     -6.69860722	    -14.90939148	     -0.68578519	     45.31610397	    -33.47696724	    -21.42157410	     -7.93751724	     -4.70932745
      1.03500000	     15.80465768	      1.81787920	     -5.34127571	      0.81692133	      0.92799452	      0.35175782	      1.08746750	     -8.04393661	     -5.03275234	    -64.14055399	      3.40606868	    -12.30447133	      0.00000000	    -16.00704192	      6.41671338	     -3.69865480	     -8.09919135	     16.92162386	     -3.09362828	      0.00000000	    -21.21580002	     -4.79063537	     -4.09581423	     -5.64348445	     -1.91646084	      4.06564800	    -10.39541720	    -13.27595447	     -1.04103119	     52.33354291	    -75.43531284	     -6.69218604	    -19.33396046	      6.53533210	     -5.98933537	    -15.09694028	     -0.90374690	     45.73220078	    -33.92244125	    -21.47876152	     -8.12683827	     -4.40235560
      1.04000000	     15.76310045	      1.64046455	     -4.99155400	      0.82274878	      0.92811734	      0.35093247	      1.68770942	     -7.67687298	     -5.29659672	    -63.59314290	      4.60944275	    -12.49024674	      0.00000000	    -16.46416093	      6.16923522	     -3.79232007	     -7.93218176	     16.97690979	     -2.80281159	      0.00000000	    -21.28158105	     -4.44586478	     -4.46538521	     -5.49219077	     -1.91485188	      4.09607303	    -10.65066786	    -13.23445740	     -0.84156738	     51.73504815	    -75.38946568	     -6.75713494	    -19.50343888	      6.38249604	     -5.23627112	    -15.26162111	     -0.95416962	     45.98089201	    -33.98399883	    -21.52586095	     -8.24595502	     -4.33049277
      1.04500000	     15.95356409	      1.21161993	     -4.36245980	      0.82909745	      0.92853432	      0.34968742	      1.81659142	     -7.25911544	     -6.38879819	    -62.71318043	      6.18202653	    -11.50591092	      0.00000000	    -17.18351591	      5.57001642	     -3.87428272	     -7.92324771	     17.72792050	     -1.71461683	      0.00000000	    -21.54997367	     -3.72106058	     -5.09942963	     -5.56303875	     -2.10637790	      4.22426496	    -10.92312659	    -13.34884559	     -0.35463153	     51.31743831	    -74.91558485	     -6.79009265	    -19.92396321	      5.96036637	     -4.63129984	    -15.38385830	     -1.11159345	     46.46529255	    -34.14796294	    -21.16758097	     -8.80839253	     -3.78541701
      1.05000000	     15.87756353	      1.08661243	     -4.09742435	      0.83502719	      0.92829089	      0.34897170	      2.52146502	     -6.99236898	     -6.80320225	    -62.03245096	      7.34400472	    -11.56383023	      0.00000000	    -17.72697131	      5.41018076	     -3.96856298	     -7.57786910	     17.91246516	     -1.48053297	      0.00000000	    -21.56121277	     -3.46784200	     -5.39807055	     -5.48334730	     -1.98282649	      4.18735421	    -11.24301889	    -13.28621775	     -0.22309739	     50.96184048	    -74.73780559	     -6.82446160	    -20.11357664	      5.83555894	     -3.97050780	    -15.59200886	     -1.35114722	     47.10305246	    -34.26799303	    -20.94500487	     -8.88723615	     -3.55515130
      1.05500000	     16.14916088	      0.88208997	     -3.50952806	      0.84122881	      0.92877010	      0.34758354	      2.52241799	     -6.79112504	     -7.64033980	    -61.10505205	      8.57654526	    -10.66955423	      0.00000000	    -18.61276311	      5.07525953	     -4.12730965	     -7.31615306	     18.55941757	     -0.25928779	      0.00000000	    -21.93044299	     -3.00145185	     -6.10703938	     -5.45418521	     -2.10839949	      4.35637194	    -11.40798250	    -13.34106693	      0.18925777	     50.53525900	    -73.93372062	     -7.10144913	    -20.60555121	      5.33048478	     -3.37474334	    -15.67573753	     -1.84391867	     47.73422389	    -35.21672232	    -20.40111527	     -9.35022218	     -2.78140219
      1.06000000	     16.11247303	      0.79745994	     -3.25115049	      0.84716807	      0.92861390	      0.34683942	      3.00450651	     -6.47824213	     -7.76022923	    -60.32890193	      9.38980778	    -10.84293876	      0.00000000	    -19.18023037	      4.96787037	     -4.20932541	     -6.93010428	     18.71398912	     -0.08441267	      0.00000000	    -21.96531479	     -2.78024297	     -6.29316282	     -5.37964440	     -2.02941864	      4.32286327	    -11.76010089	    -13.29290181	      0.34560618	     50.03425259	    -73.68433551	     -7.17649866	    -20.58448958	      5.23393089	     -2.59270374	    -15.84181832	     -1.97596851	     48.20168548	    -35.41153085	    -20.27846681	     -9.32289593	     -2.60355080
      1.06500000	     16.14326258	      0.58726396	     -2.96693591	      0.85304607	      0.92852394	      0.34611270	      3.32204428	     -6.04067136	     -7.88995058	    -59.40104624	     10.19297535	    -10.74478544	      0.00000000	    -19.81350180	      4.71820475	     -4.12989588	     -6.59383112	     19.01934157	      0.21281818	      0.00000000	    -22.09025414	     -2.41699696	     -6.59607259	     -5.30169901	     -2.12520649	      4.38569210	    -11.95840583	    -13.23742521	      0.45955031	     49.55913677	    -73.47129779	     -7.33221129	    -20.62468300	      5.08725486	     -1.90827965	    -16.03873701	     -2.08992983	     48.67642306	    -35.60148282	    -20.04062881	     -9.27768934	     -2.33663600
